<mxfile host="app.diagrams.net" agent="Mozilla/5.0 (Windows NT 10.0; Win64; x64) AppleWebKit/537.36 (KHTML, like Gecko) Chrome/137.0.0.0 Safari/537.36" version="27.1.6">
  <diagram id="cu020" name="CU021 â€“ Listado de Recursos">
    <mxGraphModel grid="1" page="1" gridSize="10" guides="1" tooltips="1" connect="1" arrows="1" fold="1" pageScale="1" pageWidth="1169" pageHeight="827" math="0" shadow="0">
      <root>
        <mxCell id="0" />
        <mxCell id="1" parent="0" />
        <mxCell id="adminHeader" value="Administrador" style="rounded=1;whiteSpace=wrap;html=1;align=center;verticalAlign=middle;" vertex="1" parent="1">
          <mxGeometry x="40" y="40" width="130" height="30" as="geometry" />
        </mxCell>
        <mxCell id="sistemaHeader" value="Sistema" style="rounded=1;whiteSpace=wrap;html=1;align=center;verticalAlign=middle;" vertex="1" parent="1">
          <mxGeometry x="340" y="40" width="130" height="30" as="geometry" />
        </mxCell>
        <mxCell id="bdHeader" value="Base de Datos" style="rounded=1;whiteSpace=wrap;html=1;align=center;verticalAlign=middle;" vertex="1" parent="1">
          <mxGeometry x="640" y="40" width="130" height="30" as="geometry" />
        </mxCell>
        <mxCell id="msg1" value="1. Pulsa el apartado &quot;Recursos&quot;" style="endArrow=block;html=1;" edge="1" parent="1">
          <mxGeometry x="0.0333" y="10" relative="1" as="geometry">
            <mxPoint x="106" y="97" as="sourcePoint" />
            <mxPoint x="406" y="97" as="targetPoint" />
            <mxPoint as="offset" />
          </mxGeometry>
        </mxCell>
        <mxCell id="msg3" value="2. Consultar listado de recursos" style="endArrow=block;html=1;" edge="1" parent="1">
          <mxGeometry x="-0.0267" y="13" relative="1" as="geometry">
            <mxPoint x="405" y="150" as="sourcePoint" />
            <mxPoint x="705" y="150" as="targetPoint" />
            <mxPoint as="offset" />
          </mxGeometry>
        </mxCell>
        <mxCell id="msg4" value="3. Retornar listado" style="endArrow=block;html=1;" edge="1" parent="1">
          <mxGeometry x="0.0267" y="-13" relative="1" as="geometry">
            <mxPoint x="705" y="180" as="sourcePoint" />
            <mxPoint x="405" y="180" as="targetPoint" />
            <mxPoint as="offset" />
          </mxGeometry>
        </mxCell>
        <mxCell id="msg5" value="4. Mostrar listado de recursos" style="endArrow=block;html=1;" edge="1" parent="1">
          <mxGeometry x="-0.04" y="-13" relative="1" as="geometry">
            <mxPoint x="405" y="210" as="sourcePoint" />
            <mxPoint x="105" y="210" as="targetPoint" />
            <mxPoint as="offset" />
          </mxGeometry>
        </mxCell>
        <mxCell id="DoOX9BaSxH7OGoWhtuoa-2" value="" style="dashed=1;endArrow=none;" edge="1" parent="1" source="88UKDmcm1z2uRuwz3CJt-7" target="DoOX9BaSxH7OGoWhtuoa-1">
          <mxGeometry relative="1" as="geometry">
            <mxPoint x="405" y="70" as="sourcePoint" />
            <mxPoint x="405" y="590" as="targetPoint" />
          </mxGeometry>
        </mxCell>
        <mxCell id="DoOX9BaSxH7OGoWhtuoa-1" value="Sistema" style="rounded=1;whiteSpace=wrap;html=1;align=center;verticalAlign=middle;" vertex="1" parent="1">
          <mxGeometry x="340" y="260" width="130" height="30" as="geometry" />
        </mxCell>
        <mxCell id="DoOX9BaSxH7OGoWhtuoa-4" value="" style="dashed=1;endArrow=none;" edge="1" parent="1" source="88UKDmcm1z2uRuwz3CJt-3" target="DoOX9BaSxH7OGoWhtuoa-3">
          <mxGeometry relative="1" as="geometry">
            <mxPoint x="705" y="70" as="sourcePoint" />
            <mxPoint x="705" y="590" as="targetPoint" />
          </mxGeometry>
        </mxCell>
        <mxCell id="DoOX9BaSxH7OGoWhtuoa-3" value="Base de Datos" style="rounded=1;whiteSpace=wrap;html=1;align=center;verticalAlign=middle;" vertex="1" parent="1">
          <mxGeometry x="640" y="260" width="130" height="30" as="geometry" />
        </mxCell>
        <mxCell id="DoOX9BaSxH7OGoWhtuoa-6" value="" style="dashed=1;endArrow=none;" edge="1" parent="1" source="88UKDmcm1z2uRuwz3CJt-9" target="DoOX9BaSxH7OGoWhtuoa-5">
          <mxGeometry relative="1" as="geometry">
            <mxPoint x="105" y="70" as="sourcePoint" />
            <mxPoint x="105" y="590" as="targetPoint" />
          </mxGeometry>
        </mxCell>
        <mxCell id="DoOX9BaSxH7OGoWhtuoa-5" value="Administrador" style="rounded=1;whiteSpace=wrap;html=1;align=center;verticalAlign=middle;" vertex="1" parent="1">
          <mxGeometry x="40" y="260" width="130" height="30" as="geometry" />
        </mxCell>
        <mxCell id="88UKDmcm1z2uRuwz3CJt-2" value="" style="dashed=1;endArrow=none;" edge="1" parent="1" target="88UKDmcm1z2uRuwz3CJt-1">
          <mxGeometry relative="1" as="geometry">
            <mxPoint x="405" y="70" as="sourcePoint" />
            <mxPoint x="405" y="260" as="targetPoint" />
          </mxGeometry>
        </mxCell>
        <mxCell id="88UKDmcm1z2uRuwz3CJt-1" value="" style="rounded=0;whiteSpace=wrap;html=1;" vertex="1" parent="1">
          <mxGeometry x="403" y="97" width="5" height="20" as="geometry" />
        </mxCell>
        <mxCell id="88UKDmcm1z2uRuwz3CJt-4" value="" style="dashed=1;endArrow=none;" edge="1" parent="1" target="88UKDmcm1z2uRuwz3CJt-3">
          <mxGeometry relative="1" as="geometry">
            <mxPoint x="705" y="70" as="sourcePoint" />
            <mxPoint x="705" y="260" as="targetPoint" />
          </mxGeometry>
        </mxCell>
        <mxCell id="88UKDmcm1z2uRuwz3CJt-3" value="" style="rounded=0;whiteSpace=wrap;html=1;" vertex="1" parent="1">
          <mxGeometry x="702.5" y="147" width="5" height="20" as="geometry" />
        </mxCell>
        <mxCell id="88UKDmcm1z2uRuwz3CJt-8" value="" style="dashed=1;endArrow=none;" edge="1" parent="1" source="88UKDmcm1z2uRuwz3CJt-1" target="88UKDmcm1z2uRuwz3CJt-7">
          <mxGeometry relative="1" as="geometry">
            <mxPoint x="405" y="117" as="sourcePoint" />
            <mxPoint x="405" y="260" as="targetPoint" />
          </mxGeometry>
        </mxCell>
        <mxCell id="88UKDmcm1z2uRuwz3CJt-7" value="" style="rounded=0;whiteSpace=wrap;html=1;" vertex="1" parent="1">
          <mxGeometry x="403" y="180.5" width="5" height="20" as="geometry" />
        </mxCell>
        <mxCell id="88UKDmcm1z2uRuwz3CJt-10" value="" style="dashed=1;endArrow=none;" edge="1" parent="1" target="88UKDmcm1z2uRuwz3CJt-9">
          <mxGeometry relative="1" as="geometry">
            <mxPoint x="105" y="70" as="sourcePoint" />
            <mxPoint x="105" y="260" as="targetPoint" />
          </mxGeometry>
        </mxCell>
        <mxCell id="88UKDmcm1z2uRuwz3CJt-9" value="" style="rounded=0;whiteSpace=wrap;html=1;" vertex="1" parent="1">
          <mxGeometry x="102.5" y="207" width="5" height="20" as="geometry" />
        </mxCell>
      </root>
    </mxGraphModel>
  </diagram>
</mxfile>
